# xmcd
#
# Track frame offsets: 
#        150
#        13859
#        26353
#        37801
#        53239
#        65581
#        80380
#        93036
#        107355
#        121805
#        134953
#        150398
#        167362
#
# Disc length: 2417 seconds
#
# Revision: 0
# Processed by: cddbd v1.5.2PL0 Copyright (c) Steve Scherf et al.
# Submitted via: ExactAudioCopy v0.95b4
#
DISCID=93096f0d
DTITLE=Lucky Kidzz - Fritzi das Boeckchen
DYEAR=2009
DGENRE=Folklore
TTITLE0=Fritzi, das Böckchen
TTITLE1=Das Wolkenlied
TTITLE2=Der Schlafanzug-Song
TTITLE3=Angsthase - Pfeffernase
TTITLE4=Her mit nem guten Buch
TTITLE5=Mein Kuscheltier
TTITLE6=Schule ist viel zu früh
TTITLE7=Freunde
TTITLE8=Wir fahr´n in Urlaub
TTITLE9=Wir danken Euch
TTITLE10=Mami, wann hört das auf
TTITLE11=Alle Zeit der Welt
TTITLE12=Alles gute zum Geburtstag
EXTD=
EXTT0=
EXTT1=
EXTT2=
EXTT3=
EXTT4=
EXTT5=
EXTT6=
EXTT7=
EXTT8=
EXTT9=
EXTT10=
EXTT11=
EXTT12=
PLAYORDER=
